<svg width="83" height="37" viewBox="0 0 83 37" fill="none" xmlns="http://www.w3.org/2000/svg">
<g clip-path="url(#clip0_2_895)">
<path fill-rule="evenodd" clip-rule="evenodd" d="M7 31C7 29.8954 7.89543 29 9 29C10.1046 29 11 29.8954 11 31C11 32.1046 10.1046 33 9 33C7.89543 33 7 32.1046 7 31Z" fill="#2F294D"/>
<path fill-rule="evenodd" clip-rule="evenodd" d="M18 31C18 29.8954 18.8954 29 20 29C21.1046 29 22 29.8954 22 31C22 32.1046 21.1046 33 20 33C18.8954 33 18 32.1046 18 31Z" fill="#2F294D"/>
<path fill-rule="evenodd" clip-rule="evenodd" d="M0 11C0 10.4477 0.447715 10 1 10H5C5.47663 10 5.88701 10.3364 5.98055 10.8037L6.82043 15H23C23.298 15 23.5805 15.1329 23.7705 15.3626C23.9605 15.5922 24.0381 15.8946 23.9823 16.1873L22.3809 24.5848C22.2437 25.2754 21.868 25.8958 21.3195 26.3373C20.7738 26.7766 20.0916 27.011 19.3914 27H9.68864C8.98837 27.011 8.3062 26.7766 7.76048 26.3373C7.21225 25.8959 6.83664 25.2759 6.69933 24.5857C6.69927 24.5854 6.69939 24.5859 6.69933 24.5857L5.02879 16.2392C5.02201 16.2116 5.01638 16.1835 5.01195 16.1551L4.18032 12H1C0.447715 12 0 11.5523 0 11ZM7.22073 17L8.66084 24.1952C8.70656 24.4254 8.83179 24.6322 9.01461 24.7793C9.19743 24.9265 9.42619 25.0047 9.66084 25.0002L9.68 25H19.4L19.4192 25.0002C19.6538 25.0047 19.8826 24.9265 20.0654 24.7793C20.2474 24.6328 20.3723 24.4273 20.4185 24.1984L21.7913 17H7.22073Z" fill="#2F294D"/>
</g>
<circle cx="23.5" cy="11.5" r="7.5" fill="#0064D2" stroke="white" stroke-width="2"/>
<path d="M23.53 15C23.398 15 23.288 14.956 23.2 14.868C23.112 14.78 23.068 14.6737 23.068 14.549V8.29L23.2 8.444L21.957 9.302C21.8837 9.35333 21.7993 9.379 21.704 9.379C21.5793 9.379 21.473 9.335 21.385 9.247C21.297 9.15167 21.253 9.04533 21.253 8.928C21.253 8.76667 21.33 8.63833 21.484 8.543L23.233 7.388C23.2917 7.35133 23.3503 7.32567 23.409 7.311C23.4677 7.29633 23.5263 7.29267 23.585 7.3C23.717 7.3 23.8197 7.344 23.893 7.432C23.9737 7.51267 24.014 7.61533 24.014 7.74V14.549C24.014 14.6737 23.9663 14.78 23.871 14.868C23.783 14.956 23.6693 15 23.53 15Z" fill="white"/>
<path d="M37.9 13.5H39.268V7.788L41.824 13.5H42.772L45.316 7.788V13.5H46.684V5.16H45.22L42.304 11.7L39.376 5.16H37.9V13.5ZM51.086 11.928L49.226 6.888H47.702L50.306 13.392L48.962 16.608H50.378L54.434 6.888H53.018L51.086 11.928ZM58.1276 10.188C58.1276 12.264 59.4716 13.608 61.3676 13.608C62.9876 13.608 64.0436 12.708 64.4156 11.412H62.9396C62.6876 12.096 62.1836 12.456 61.3676 12.456C60.2636 12.456 59.5316 11.64 59.5316 10.188C59.5316 8.748 60.2636 7.932 61.3676 7.932C62.1836 7.932 62.7116 8.34 62.9396 8.976H64.4156C64.0436 7.584 62.9876 6.78 61.3676 6.78C59.4716 6.78 58.1276 8.124 58.1276 10.188ZM65.3229 10.164C65.3229 12.204 66.7029 13.608 68.4189 13.608C69.5229 13.608 70.3149 13.08 70.7349 12.516V13.5H72.1149V6.888H70.7349V7.848C70.3269 7.308 69.5589 6.78 68.4429 6.78C66.7029 6.78 65.3229 8.124 65.3229 10.164ZM70.7349 10.188C70.7349 11.616 69.7629 12.42 68.7309 12.42C67.7109 12.42 66.7269 11.592 66.7269 10.164C66.7269 8.736 67.7109 7.968 68.7309 7.968C69.7629 7.968 70.7349 8.772 70.7349 10.188ZM75.2797 10.02C75.2797 8.616 75.9037 8.196 76.9117 8.196H77.2597V6.78C76.3237 6.78 75.6637 7.188 75.2797 7.848V6.888H73.9117V13.5H75.2797V10.02ZM78.7332 11.664C78.7332 13.008 79.4652 13.5 80.6412 13.5H81.7212V12.36H80.8812C80.3052 12.36 80.1132 12.156 80.1132 11.664V8.004H81.7212V6.888H80.1132V5.244H78.7332V6.888H77.9532V8.004H78.7332V11.664Z" fill="#2F294D"/>
<path d="M43.468 31.244C43.468 31.844 43.252 32.352 42.82 32.768C42.396 33.184 41.852 33.452 41.188 33.572V34.544C41.188 34.712 41.132 34.848 41.02 34.952C40.916 35.064 40.78 35.12 40.612 35.12C40.452 35.12 40.316 35.064 40.204 34.952C40.1 34.848 40.048 34.712 40.048 34.544V33.596C39.584 33.556 39.164 33.456 38.788 33.296C38.412 33.136 38.052 32.896 37.708 32.576C37.54 32.432 37.456 32.268 37.456 32.084C37.456 31.94 37.512 31.812 37.624 31.7C37.736 31.58 37.868 31.52 38.02 31.52C38.156 31.52 38.272 31.564 38.368 31.652C38.624 31.892 38.888 32.08 39.16 32.216C39.432 32.352 39.728 32.444 40.048 32.492V29.72C39.28 29.544 38.692 29.268 38.284 28.892C37.876 28.508 37.672 27.988 37.672 27.332C37.672 26.7 37.888 26.18 38.32 25.772C38.76 25.356 39.336 25.104 40.048 25.016V24.392C40.048 24.224 40.104 24.088 40.216 23.984C40.328 23.872 40.468 23.816 40.636 23.816C40.796 23.816 40.928 23.872 41.032 23.984C41.136 24.088 41.188 24.224 41.188 24.392V25.028C41.564 25.084 41.912 25.184 42.232 25.328C42.552 25.472 42.82 25.648 43.036 25.856C43.22 26.016 43.312 26.188 43.312 26.372C43.312 26.516 43.256 26.644 43.144 26.756C43.04 26.868 42.912 26.924 42.76 26.924C42.648 26.924 42.556 26.892 42.484 26.828C42.34 26.684 42.152 26.552 41.92 26.432C41.688 26.312 41.444 26.224 41.188 26.168V28.832C41.956 29.032 42.528 29.312 42.904 29.672C43.28 30.024 43.468 30.548 43.468 31.244ZM38.812 27.284C38.812 27.604 38.916 27.864 39.124 28.064C39.34 28.256 39.648 28.416 40.048 28.544V26.12C39.664 26.184 39.36 26.32 39.136 26.528C38.92 26.736 38.812 26.988 38.812 27.284ZM41.188 32.432C41.524 32.344 41.796 32.2 42.004 32C42.212 31.8 42.316 31.564 42.316 31.292C42.308 30.988 42.208 30.736 42.016 30.536C41.832 30.328 41.556 30.156 41.188 30.02V32.432ZM49.6004 32.444C49.7524 32.444 49.8804 32.496 49.9844 32.6C50.0884 32.704 50.1404 32.832 50.1404 32.984C50.1404 33.136 50.0884 33.26 49.9844 33.356C49.8804 33.452 49.7524 33.5 49.6004 33.5H45.3404C45.1804 33.5 45.0484 33.452 44.9444 33.356C44.8404 33.252 44.7884 33.116 44.7884 32.948C44.7884 32.804 44.8444 32.668 44.9564 32.54L47.6324 29.636C48.3764 28.844 48.7484 28.144 48.7484 27.536C48.7484 27.104 48.6044 26.748 48.3164 26.468C48.0364 26.18 47.6764 26.036 47.2364 26.036C46.9404 26.036 46.6564 26.12 46.3844 26.288C46.1124 26.456 45.8924 26.696 45.7244 27.008C45.5964 27.176 45.4444 27.26 45.2684 27.26C45.1324 27.26 45.0044 27.208 44.8844 27.104C44.7644 27 44.7044 26.88 44.7044 26.744C44.7044 26.656 44.7324 26.564 44.7884 26.468C44.8524 26.372 44.9404 26.26 45.0524 26.132C45.3164 25.78 45.6524 25.5 46.0604 25.292C46.4684 25.084 46.8804 24.98 47.2964 24.98C47.8324 24.98 48.2964 25.088 48.6884 25.304C49.0804 25.52 49.3804 25.816 49.5884 26.192C49.8044 26.568 49.9124 27 49.9124 27.488C49.9124 28.408 49.4164 29.4 48.4244 30.464L46.6124 32.444H49.6004ZM53.2463 25.1C53.4063 25.108 53.5343 25.168 53.6303 25.28C53.7343 25.384 53.7863 25.516 53.7863 25.676V32.924C53.7863 33.084 53.7263 33.22 53.6063 33.332C53.4863 33.444 53.3383 33.5 53.1623 33.5C52.9863 33.5 52.8423 33.444 52.7303 33.332C52.6183 33.22 52.5623 33.084 52.5623 32.924V26.684L51.5063 27.32C51.4183 27.376 51.3183 27.404 51.2063 27.404C51.0463 27.404 50.9103 27.344 50.7983 27.224C50.6863 27.096 50.6303 26.96 50.6303 26.816C50.6303 26.72 50.6583 26.628 50.7143 26.54C50.7703 26.452 50.8423 26.38 50.9303 26.324L52.8263 25.184C52.9383 25.128 53.0783 25.1 53.2463 25.1Z" fill="#0064D2"/>
<defs>
<clipPath id="clip0_2_895">
<rect width="24" height="24" fill="white" transform="translate(0 10)"/>
</clipPath>
</defs>
</svg>
